<svg xmlns="http://www.w3.org/2000/svg"><defs id="svg-defs"><path id="message-tail" d="M1 0h6v17q-.29-4.26-2.05-8.782Q3.594 4.73.325 1.738A1 1 0 0 1 1 0"/><path id="logo" fill-rule="evenodd" d="M80 0c44.183 0 80 35.817 80 80s-35.817 80-80 80S0 124.183 0 80 35.817 0 80 0m34.263 46.452h-.14c-3.033.054-7.64 1.625-28.994 10.486l-3.716 1.547q-12.82 5.375-46.817 20.184-5.906 2.349-6.187 4.594c-.346 2.762 3.461 3.697 8.38 5.267l1.475.475c4.129 1.31 9.29 2.72 12.061 2.78q3.886.084 8.638-3.073l11.55-7.78Q93.242 65.665 94.4 65.279l.277-.062c.481-.095 1.059-.144 1.47.221.486.433.439 1.251.387 1.47-.407 1.738-21.251 20.707-22.872 22.335l-.35.36c-4.548 4.623-9.41 7.57-1.75 12.753l1.796 1.19c5.707 3.79 9.59 6.539 15.452 10.413l1.577 1.038c4.677 3.066 8.345 6.702 13.175 6.257 2.178-.2 4.426-2.21 5.612-8.156l.072-.369c2.755-14.727 8.17-46.635 9.423-59.784.11-1.152-.029-2.626-.14-3.273l-.056-.293c-.133-.613-.406-1.374-1.127-1.959-.934-.758-2.345-.955-3.084-.967"/><path id="poll-line" d="M4.47 5.33v13.6a9 9 0 0 0 9 9h458.16"/><path id="check" fill="none" d="m4.707 12.293 5 5a1 1 0 0 0 1.414 0l11-11"/><path id="verified-icon-background" fill-rule="evenodd" d="m14.379 1.51 1.818 1.818a1.95 1.95 0 0 0 1.379.571h2.574a1.95 1.95 0 0 1 1.94 1.763l.01.188v2.573c0 .517.205 1.013.57 1.379l1.82 1.82a1.95 1.95 0 0 1 .135 2.608l-.135.149-1.82 1.818a1.95 1.95 0 0 0-.57 1.38v2.573a1.95 1.95 0 0 1-1.762 1.941l-.188.009h-2.574a1.95 1.95 0 0 0-1.38.57l-1.817 1.82a1.95 1.95 0 0 1-2.61.135l-.148-.135-1.82-1.82a1.95 1.95 0 0 0-1.378-.57H5.85a1.95 1.95 0 0 1-1.941-1.762l-.01-.188v-2.574a1.95 1.95 0 0 0-.57-1.379l-1.82-1.818a1.95 1.95 0 0 1-.133-2.61l.133-.148 1.82-1.82a1.95 1.95 0 0 0 .57-1.378V5.85C3.9 4.773 4.774 3.9 5.85 3.9h2.573a1.95 1.95 0 0 0 1.379-.572L11.62 1.51a1.95 1.95 0 0 1 2.758 0m3.195 8.047a1.08 1.08 0 0 0-1.417.06l-.1.109-4.448 5.558-1.746-1.747-.11-.097a1.08 1.08 0 0 0-1.513 1.512l.097.111 2.6 2.6.11.096a1.08 1.08 0 0 0 1.397-.077l.099-.108 5.2-6.5.083-.12a1.08 1.08 0 0 0-.252-1.397" clip-rule="evenodd"/><path id="verified-icon-check" d="M8 8h10v10H8z"/><path id="topic-icon" d="M21.373 4.27C19.218 2.253 16.202 1 12.863 1 6.313 1 1 5.829 1 11.785c0 3.397 1.587 6.182 4.287 8.159.345.253.663 1.657-.106 2.837-.315.483-.662.858-.928 1.147-.386.418-.605.655-.32.774.296.125 2.05.186 3.315-.523.99-.556 1.59-1.11 1.994-1.483.334-.309.534-.493.71-.453a13 13 0 0 0 2.912.327c6.552 0 11.863-4.828 11.863-10.785 0-2.922-1.278-5.572-3.354-7.515"/></defs></svg>